<?xml version="1.0" encoding="UTF-8"?>
<svg xmlns="http://www.w3.org/2000/svg" viewBox="32 68 896 432" role="img" aria-label="DeepTicket 五层架构">
  <style>
    .ht{font:700 19px "PingFang SC","Microsoft YaHei",sans-serif;fill:#0f172a}
    .hs{font:12px "PingFang SC","Microsoft YaHei",sans-serif;fill:#64748b}
    .lm{font:700 14px "PingFang SC","Microsoft YaHei",sans-serif;fill:#0f172a}
    .lh{font:10px "PingFang SC","Microsoft YaHei",sans-serif;fill:#64748b}
    .t{font:600 13px "PingFang SC","Microsoft YaHei",sans-serif;fill:#0f172a}
    .s{font:11px "PingFang SC","Microsoft YaHei",sans-serif;fill:#64748b}
    .ft{font:10px "PingFang SC","Microsoft YaHei",sans-serif;fill:#94a3b8}
    .arr{font:14px "PingFang SC",sans-serif;fill:#94a3b8}
  </style>
  <rect x="32" y="68" width="896" height="432" rx="4" fill="#fff" stroke="#e2e8f0"/>
  <rect x="32" y="68" width="896" height="76" fill="#f8fafc"/>
  <line x1="32" y1="144" x2="928" y2="144" stroke="#e2e8f0"/>
  <rect x="32" y="68" width="80" height="76" fill="#eff6ff"/>
  <line x1="112" y1="68" x2="112" y2="144" stroke="#cbd5e1"/>
  <text x="72" y="96" text-anchor="middle" class="lm">输入层</text>
  <text x="72" y="114" text-anchor="middle" class="lh">Input</text>
  <rect x="128" y="84" width="200" height="44" rx="2" fill="#fff" stroke="#cbd5e1"/>
  <text x="228" y="102" text-anchor="middle" class="t">外部系统</text>
  <text x="228" y="118" text-anchor="middle" class="s">监控 · ITSM · 客诉</text>
  <text x="344" y="110" text-anchor="middle" class="arr">→</text>
  <rect x="360" y="84" width="160" height="44" rx="2" fill="#fff" stroke="#2563eb" stroke-width="1.5"/>
  <text x="440" y="102" text-anchor="middle" class="t">Ingress</text>
  <text x="440" y="118" text-anchor="middle" class="s">API Key · HTTP</text>
  <rect x="536" y="84" width="376" height="44" rx="2" fill="#fff" stroke="#2563eb" stroke-width="1.5"/>
  <text x="724" y="102" text-anchor="middle" class="t">Web 工作台</text>
  <text x="724" y="118" text-anchor="middle" class="s">研发 · 运营 · 客服 · 值班</text>
  <rect x="32" y="144" width="896" height="96" fill="#fffbeb"/>
  <line x1="32" y1="240" x2="928" y2="240" stroke="#e2e8f0"/>
  <rect x="32" y="144" width="80" height="96" fill="#fef3c7"/>
  <line x1="112" y1="144" x2="112" y2="240" stroke="#cbd5e1"/>
  <text x="72" y="176" text-anchor="middle" class="lm">编排层</text>
  <text x="72" y="194" text-anchor="middle" class="lh">DeepTicket</text>
  <text x="72" y="210" text-anchor="middle" class="lh">本体</text>
  <rect x="128" y="162" width="168" height="56" rx="2" fill="#fff" stroke="#d97706" stroke-width="1.5"/>
  <text x="212" y="184" text-anchor="middle" class="t">Git 同步</text>
  <text x="212" y="202" text-anchor="middle" class="s">拉各项目代码</text>
  <rect x="308" y="162" width="168" height="56" rx="2" fill="#fff" stroke="#d97706" stroke-width="1.5"/>
  <text x="392" y="184" text-anchor="middle" class="t">调度与路由</text>
  <text x="392" y="202" text-anchor="middle" class="s">队列 · ChatRun · MCP</text>
  <rect x="488" y="162" width="168" height="56" rx="2" fill="#fff" stroke="#d97706" stroke-width="1.5"/>
  <text x="572" y="184" text-anchor="middle" class="t">多项目配置</text>
  <text x="572" y="202" text-anchor="middle" class="s">权限 · agents.md</text>
  <rect x="668" y="162" width="244" height="56" rx="2" fill="#fff" stroke="#d97706" stroke-width="1.5"/>
  <text x="790" y="184" text-anchor="middle" class="t">工单与回写</text>
  <text x="790" y="202" text-anchor="middle" class="s">组装结论 · Webhook ITSM</text>
  <rect x="32" y="240" width="896" height="72" fill="#fafafa"/>
  <line x1="32" y1="312" x2="928" y2="312" stroke="#e2e8f0"/>
  <rect x="32" y="240" width="80" height="72" fill="#f1f5f9"/>
  <line x1="112" y1="240" x2="112" y2="312" stroke="#cbd5e1"/>
  <text x="72" y="268" text-anchor="middle" class="lm">引擎层</text>
  <text x="72" y="286" text-anchor="middle" class="lh">OpenHands</text>
  <rect x="128" y="252" width="784" height="48" rx="2" fill="#fff" stroke="#111827" stroke-width="1.5"/>
  <text x="520" y="272" text-anchor="middle" class="t">Agent 运行时</text>
  <text x="520" y="288" text-anchor="middle" class="s">读文件 · 推理 · 调工具 · 调 MCP</text>
  <rect x="32" y="312" width="896" height="72" fill="#f0fdf4"/>
  <line x1="32" y1="384" x2="928" y2="384" stroke="#e2e8f0"/>
  <rect x="32" y="312" width="80" height="72" fill="#ecfdf5"/>
  <line x1="112" y1="312" x2="112" y2="384" stroke="#cbd5e1"/>
  <text x="72" y="340" text-anchor="middle" class="lm">知识层</text>
  <text x="72" y="358" text-anchor="middle" class="lh">证据源</text>
  <rect x="128" y="324" width="184" height="48" rx="2" fill="#fff" stroke="#16a34a" stroke-width="1.5"/>
  <text x="220" y="344" text-anchor="middle" class="t">Git 源码</text>
  <text x="220" y="360" text-anchor="middle" class="s">只读 clone</text>
  <rect x="324" y="324" width="184" height="48" rx="2" fill="#fff" stroke="#16a34a" stroke-width="1.5"/>
  <text x="416" y="344" text-anchor="middle" class="t">日志 MCP</text>
  <text x="416" y="360" text-anchor="middle" class="s">ELK · Loki</text>
  <rect x="520" y="324" width="184" height="48" rx="2" fill="#fff" stroke="#16a34a" stroke-width="1.5"/>
  <text x="612" y="344" text-anchor="middle" class="t">配置 MCP</text>
  <text x="612" y="360" text-anchor="middle" class="s">Apollo · Nacos</text>
  <rect x="716" y="324" width="196" height="48" rx="2" fill="#fff" stroke="#16a34a" stroke-width="1.5"/>
  <text x="814" y="344" text-anchor="middle" class="t">agents.md</text>
  <text x="814" y="360" text-anchor="middle" class="s">项目提示词</text>
  <rect x="32" y="384" width="896" height="72" fill="#f8fafc"/>
  <rect x="32" y="384" width="80" height="72" fill="#eff6ff"/>
  <line x1="112" y1="384" x2="112" y2="456" stroke="#cbd5e1"/>
  <text x="72" y="412" text-anchor="middle" class="lm">输出层</text>
  <text x="72" y="430" text-anchor="middle" class="lh">Output</text>
  <rect x="128" y="396" width="248" height="48" rx="2" fill="#fff" stroke="#2563eb" stroke-width="1.5"/>
  <text x="252" y="416" text-anchor="middle" class="t">Webhook ITSM</text>
  <text x="252" y="432" text-anchor="middle" class="s">外部工单</text>
  <rect x="388" y="396" width="248" height="48" rx="2" fill="#fff" stroke="#2563eb" stroke-width="1.5"/>
  <text x="512" y="416" text-anchor="middle" class="t">工作台展示</text>
  <text x="512" y="432" text-anchor="middle" class="s">Thinking · 置信度</text>
  <rect x="648" y="396" width="264" height="48" rx="2" fill="#fff" stroke="#cbd5e1"/>
  <text x="780" y="416" text-anchor="middle" class="t">存库 / 审计</text>
  <text x="780" y="432" text-anchor="middle" class="s">聊天 · 任务记录</text>
</svg>